<svg width="706" height="66" viewBox="0 0 706 66" fill="none" xmlns="http://www.w3.org/2000/svg">
<path d="M2.18942 64.6883C0.729807 64.6883 0 63.8855 0 62.2799V4.30405C0 2.69847 0.729807 1.89568 2.18942 1.89568H7.79434C9.8378 1.89568 11.2974 2.62549 12.1732 4.08511L39.5848 50.0192H39.7599C39.7015 48.8515 39.6723 47.6838 39.6723 46.5161V4.30405C39.6723 2.69847 40.4021 1.89568 41.8618 1.89568H45.8903C47.3499 1.89568 48.0797 2.69847 48.0797 4.30405V62.2799C48.0797 63.8855 47.3499 64.6883 45.8903 64.6883H42.0369C39.9934 64.6883 38.5338 63.9585 37.6581 62.4989L8.49496 13.7624H8.3198C8.37819 14.93 8.40738 16.0977 8.40738 17.2654V62.2799C8.40738 63.8855 7.67757 64.6883 6.21796 64.6883H2.18942Z" fill="white"/>
<path d="M59.5523 33.292C59.5523 23.0747 62.0628 15.076 67.0839 9.29593C72.1342 3.48666 79.403 0.582031 88.8905 0.582031C98.378 0.582031 105.632 3.48666 110.653 9.29593C115.704 15.076 118.229 23.0747 118.229 33.292C118.229 43.5093 115.704 51.5226 110.653 57.3318C105.632 63.1119 98.378 66.002 88.8905 66.002C79.403 66.002 72.1342 63.1119 67.0839 57.3318C62.0628 51.5226 59.5523 43.5093 59.5523 33.292ZM68.5289 33.292C68.5289 41.4658 70.2075 47.8298 73.5646 52.3838C76.9217 56.9086 82.0303 59.171 88.8905 59.171C95.7507 59.171 100.859 56.9086 104.216 52.3838C107.574 47.8298 109.252 41.4658 109.252 33.292C109.252 25.1182 107.574 18.7688 104.216 14.244C100.859 9.69003 95.7507 7.41303 88.8905 7.41303C82.0303 7.41303 76.9217 9.69003 73.5646 14.244C70.2075 18.7688 68.5289 25.1182 68.5289 33.292Z" fill="white"/>
<path d="M125.366 4.78572C124.637 2.85903 125.031 1.89568 126.549 1.89568H131.015C132.591 1.89568 133.642 2.6109 134.168 4.04132L148.399 43.232C149.012 44.9543 149.771 47.2751 150.676 50.1943C151.61 53.0844 152.238 55.3906 152.559 57.1129H152.734C153.055 55.3906 153.668 53.0844 154.573 50.1943C155.507 47.2751 156.281 44.9543 156.894 43.232L171.125 4.04132C171.651 2.6109 172.702 1.89568 174.278 1.89568H178.744C180.262 1.89568 180.657 2.85903 179.927 4.78572L158.602 62.0172C157.93 63.7979 156.967 64.6883 155.712 64.6883H149.581C148.326 64.6883 147.363 63.7979 146.691 62.0172L125.366 4.78572Z" fill="white"/>
<path d="M176.03 64.6883C174.512 64.6883 174.117 63.725 174.847 61.7983L196.654 4.56678C197.325 2.78605 198.289 1.89568 199.544 1.89568H205.674C206.93 1.89568 207.893 2.78605 208.564 4.56678L230.371 61.7983C231.101 63.725 230.707 64.6883 229.189 64.6883H224.722C223.175 64.6883 222.124 63.9731 221.57 62.5427L216.096 48.0487L213.337 40.8674H205.767L202.609 48.0487H189.122L183.649 62.5427C183.094 63.9731 182.043 64.6883 180.496 64.6883H176.03ZM191.881 40.8674H213.337L206.638 23.352C206.025 21.7173 205.412 19.9073 204.799 17.9223C204.215 15.9372 203.514 13.1201 202.697 9.47108H202.522C201.704 13.1201 200.989 15.9372 200.376 17.9223C199.792 19.9073 199.194 21.7173 198.581 23.352L191.881 40.8674Z" fill="white"/>
<path d="M240.924 64.6883C239.464 64.6883 238.735 63.8855 238.735 62.2799V4.30405C238.735 2.69847 239.464 1.89568 240.924 1.89568H244.953C246.412 1.89568 247.142 2.69847 247.142 4.30405V57.507H276.174C277.779 57.507 278.582 58.1638 278.582 59.4775V62.7178C278.582 64.0315 277.779 64.6883 276.174 64.6883H240.924Z" fill="white"/>
<path d="M290.668 64.6883C289.208 64.6883 288.478 63.8855 288.478 62.2799V4.30405C288.478 2.69847 289.208 1.89568 290.668 1.89568H294.696C296.156 1.89568 296.886 2.69847 296.886 4.30405V62.2799C296.886 63.8855 296.156 64.6883 294.696 64.6883H290.668Z" fill="white"/>
<path d="M313.963 64.6883C312.504 64.6883 311.774 63.8855 311.774 62.2799V4.30405C311.774 2.69847 312.504 1.89568 313.963 1.89568H319.568C321.612 1.89568 323.071 2.62549 323.947 4.08511L351.358 50.0192H351.534C351.475 48.8515 351.446 47.6838 351.446 46.5161V4.30405C351.446 2.69847 352.176 1.89568 353.635 1.89568H357.664C359.124 1.89568 359.853 2.69847 359.853 4.30405V62.2799C359.853 63.8855 359.124 64.6883 357.664 64.6883H353.811C351.767 64.6883 350.308 63.9585 349.432 62.4989L320.269 13.7624H320.094C320.152 14.93 320.181 16.0977 320.181 17.2654V62.2799C320.181 63.8855 319.451 64.6883 317.992 64.6883H313.963Z" fill="white"/>
<path d="M376.931 64.6883C375.471 64.6883 374.742 63.8855 374.742 62.2799V4.30405C374.742 2.69847 375.471 1.89568 376.931 1.89568H380.959C382.419 1.89568 383.149 2.69847 383.149 4.30405V30.0517C383.149 31.2193 383.12 32.387 383.061 33.5547H383.236L412.487 3.60343C413.596 2.46493 414.618 1.89568 415.552 1.89568H420.851C423.274 1.89568 423.536 2.85903 421.639 4.78572L399.394 27.4681L422.821 61.7983C424.106 63.725 423.843 64.6883 422.033 64.6883H416.691C415.406 64.6883 414.385 64.1191 413.626 62.9806L393.614 33.4234L383.149 44.0639V62.2799C383.149 63.8855 382.419 64.6883 380.959 64.6883H376.931Z" fill="white"/>
<path d="M471.713 27.5982V0.687154H480.399C482.308 0.687154 483.903 1.03318 485.182 1.72523C486.469 2.40851 487.437 3.35899 488.086 4.57664C488.743 5.78554 489.071 7.17402 489.071 8.74208C489.071 10.3101 488.743 11.6942 488.086 12.8944C487.437 14.0945 486.474 15.0318 485.195 15.7064C483.916 16.3809 482.33 16.7182 480.438 16.7182H473.04V14.4712H480.372C481.774 14.4712 482.939 14.239 483.868 13.7748C484.805 13.3105 485.501 12.6491 485.957 11.7906C486.421 10.9321 486.653 9.91593 486.653 8.74208C486.653 7.56822 486.421 6.54329 485.957 5.66728C485.493 4.78251 484.792 4.09922 483.854 3.61741C482.926 3.1356 481.752 2.8947 480.333 2.8947H474.17V27.5982H471.713ZM483.578 15.4567L490.201 27.5982H487.363L480.806 15.4567H483.578Z" fill="white"/>
<path d="M501.033 28.0187C499.15 28.0187 497.521 27.5807 496.145 26.7047C494.77 25.8199 493.705 24.5979 492.952 23.0386C492.208 21.4705 491.835 19.6659 491.835 17.6248C491.835 15.5925 492.208 13.7879 492.952 12.2111C493.705 10.6255 494.744 9.38594 496.066 8.49241C497.398 7.59012 498.935 7.13898 500.679 7.13898C501.774 7.13898 502.829 7.34046 503.845 7.74342C504.861 8.13763 505.773 8.74646 506.578 9.56991C507.393 10.3846 508.037 11.4139 508.51 12.6578C508.983 13.893 509.22 15.356 509.22 17.0467V18.203H493.451V16.14H506.828C506.828 14.8435 506.565 13.6784 506.04 12.6447C505.523 11.6023 504.8 10.7788 503.872 10.1744C502.952 9.56991 501.887 9.26768 500.679 9.26768C499.4 9.26768 498.274 9.60933 497.302 10.2926C496.329 10.9759 495.567 11.8782 495.015 12.9995C494.472 14.1208 494.196 15.3472 494.187 16.6787V17.9139C494.187 19.517 494.463 20.9186 495.015 22.1188C495.576 23.3101 496.369 24.2343 497.394 24.8913C498.418 25.5483 499.632 25.8769 501.033 25.8769C501.988 25.8769 502.825 25.7279 503.543 25.4301C504.27 25.1322 504.879 24.7337 505.37 24.2343C505.869 23.7262 506.246 23.17 506.5 22.5655L508.72 23.2882C508.414 24.138 507.91 24.922 507.209 25.6403C506.517 26.3587 505.65 26.9368 504.607 27.3748C503.574 27.8041 502.382 28.0187 501.033 28.0187Z" fill="white"/>
<path d="M527.903 7.41492L520.531 27.5982H518.035L510.663 7.41492H513.199L519.191 24.5103H519.375L525.367 7.41492H527.903Z" fill="white"/>
<path d="M538.121 28.0187C536.378 28.0187 534.836 27.5763 533.496 26.6915C532.164 25.8068 531.122 24.5847 530.368 23.0254C529.615 21.4574 529.238 19.6484 529.238 17.5985C529.238 15.5312 529.615 13.7134 530.368 12.1454C531.122 10.5686 532.164 9.34214 533.496 8.46613C534.836 7.58136 536.378 7.13898 538.121 7.13898C539.864 7.13898 541.402 7.58136 542.733 8.46613C544.065 9.3509 545.107 10.5773 545.861 12.1454C546.623 13.7134 547.004 15.5312 547.004 17.5985C547.004 19.6484 546.627 21.4574 545.874 23.0254C545.12 24.5847 544.074 25.8068 542.733 26.6915C541.402 27.5763 539.864 28.0187 538.121 28.0187ZM538.121 25.8769C539.523 25.8769 540.71 25.5002 541.682 24.7468C542.654 23.9934 543.39 22.9904 543.89 21.7377C544.398 20.485 544.652 19.1053 544.652 17.5985C544.652 16.0918 544.398 14.7077 543.89 13.4463C543.39 12.1848 542.654 11.173 541.682 10.4109C540.71 9.64875 539.523 9.26768 538.121 9.26768C536.728 9.26768 535.541 9.64875 534.56 10.4109C533.588 11.173 532.847 12.1848 532.339 13.4463C531.84 14.7077 531.59 16.0918 531.59 17.5985C531.59 19.1053 531.84 20.485 532.339 21.7377C532.847 22.9904 533.588 23.9934 534.56 24.7468C535.532 25.5002 536.719 25.8769 538.121 25.8769Z" fill="white"/>
<path d="M552.997 0.687154V27.5982H550.658V0.687154H552.997Z" fill="white"/>
<path d="M570.531 19.8849V7.41492H572.87V27.5982H570.531V24.2475H570.347C569.874 25.2812 569.125 26.144 568.1 26.8361C567.075 27.5194 565.822 27.861 564.342 27.861C563.054 27.861 561.911 27.5807 560.912 27.02C559.914 26.4506 559.13 25.6184 558.56 24.5234C557.991 23.4284 557.706 22.0837 557.706 20.4894V7.41492H560.045V20.3448C560.045 21.9217 560.509 23.1919 561.438 24.1555C562.366 25.1103 563.558 25.5878 565.012 25.5878C565.923 25.5878 566.799 25.3688 567.64 24.9308C568.481 24.4928 569.173 23.8533 569.716 23.0123C570.259 22.1626 570.531 21.1201 570.531 19.8849Z" fill="white"/>
<path d="M585.532 7.41492V9.45164H575.9V7.41492H585.532ZM578.909 2.57934H581.261V22.329C581.261 23.17 581.406 23.8314 581.695 24.3132C581.984 24.7862 582.361 25.1235 582.825 25.325C583.289 25.5177 583.784 25.614 584.31 25.614C584.616 25.614 584.879 25.5965 585.098 25.5615C585.317 25.5177 585.51 25.4739 585.676 25.4301L586.176 27.5457C585.948 27.6333 585.668 27.7121 585.335 27.7822C585.002 27.861 584.59 27.9004 584.1 27.9004C583.241 27.9004 582.413 27.7121 581.616 27.3354C580.828 26.9587 580.179 26.3981 579.671 25.6535C579.163 24.9089 578.909 23.9847 578.909 22.8809V2.57934Z" fill="white"/>
<path d="M589.39 27.5982V7.41492H591.742V27.5982H589.39ZM590.586 3.94591C590.104 3.94591 589.692 3.78385 589.35 3.45973C589.009 3.12685 588.838 2.72826 588.838 2.26397C588.838 1.79969 589.009 1.40548 589.35 1.08136C589.692 0.748474 590.104 0.582031 590.586 0.582031C591.067 0.582031 591.479 0.748474 591.821 1.08136C592.162 1.40548 592.333 1.79969 592.333 2.26397C592.333 2.72826 592.162 3.12685 591.821 3.45973C591.479 3.78385 591.067 3.94591 590.586 3.94591Z" fill="white"/>
<path d="M604.292 28.0187C602.549 28.0187 601.007 27.5763 599.667 26.6915C598.335 25.8068 597.293 24.5847 596.54 23.0254C595.786 21.4574 595.41 19.6484 595.41 17.5985C595.41 15.5312 595.786 13.7134 596.54 12.1454C597.293 10.5686 598.335 9.34214 599.667 8.46613C601.007 7.58136 602.549 7.13898 604.292 7.13898C606.036 7.13898 607.573 7.58136 608.905 8.46613C610.236 9.3509 611.278 10.5773 612.032 12.1454C612.794 13.7134 613.175 15.5312 613.175 17.5985C613.175 19.6484 612.798 21.4574 612.045 23.0254C611.292 24.5847 610.245 25.8068 608.905 26.6915C607.573 27.5763 606.036 28.0187 604.292 28.0187ZM604.292 25.8769C605.694 25.8769 606.881 25.5002 607.853 24.7468C608.826 23.9934 609.562 22.9904 610.061 21.7377C610.569 20.485 610.823 19.1053 610.823 17.5985C610.823 16.0918 610.569 14.7077 610.061 13.4463C609.562 12.1848 608.826 11.173 607.853 10.4109C606.881 9.64875 605.694 9.26768 604.292 9.26768C602.899 9.26768 601.712 9.64875 600.731 10.4109C599.759 11.173 599.019 12.1848 598.511 13.4463C598.011 14.7077 597.762 16.0918 597.762 17.5985C597.762 19.1053 598.011 20.485 598.511 21.7377C599.019 22.9904 599.759 23.9934 600.731 24.7468C601.704 25.5002 602.891 25.8769 604.292 25.8769Z" fill="white"/>
<path d="M619.168 14.9837V27.5982H616.829V7.41492H619.103V10.5817H619.313C619.786 9.54801 620.522 8.72018 621.521 8.09821C622.528 7.46748 623.772 7.15212 625.252 7.15212C626.61 7.15212 627.801 7.43682 628.826 8.00623C629.86 8.56687 630.662 9.3947 631.231 10.4897C631.809 11.5847 632.098 12.9294 632.098 14.5237V27.5982H629.759V14.6683C629.759 13.0126 629.295 11.703 628.367 10.7394C627.447 9.77577 626.212 9.29396 624.661 9.29396C623.601 9.29396 622.659 9.52173 621.836 9.97725C621.012 10.4328 620.36 11.0898 619.878 11.9483C619.405 12.798 619.168 13.8098 619.168 14.9837Z" fill="white"/>
<path d="M636.804 27.5982V7.41492H639.156V27.5982H636.804ZM638 3.94591C637.518 3.94591 637.106 3.78385 636.765 3.45973C636.423 3.12685 636.252 2.72826 636.252 2.26397C636.252 1.79969 636.423 1.40548 636.765 1.08136C637.106 0.748474 637.518 0.582031 638 0.582031C638.482 0.582031 638.893 0.748474 639.235 1.08136C639.577 1.40548 639.747 1.79969 639.747 2.26397C639.747 2.72826 639.577 3.12685 639.235 3.45973C638.893 3.78385 638.482 3.94591 638 3.94591Z" fill="white"/>
<path d="M643.231 27.5982V25.7455L654.899 9.79329V9.62247H643.73V7.41492H657.909V9.34652L646.45 25.2198V25.3907H658.329V27.5982H643.231Z" fill="white"/>
<path d="M662.029 27.5982V7.41492H664.382V27.5982H662.029ZM663.225 3.94591C662.743 3.94591 662.332 3.78385 661.99 3.45973C661.648 3.12685 661.478 2.72826 661.478 2.26397C661.478 1.79969 661.648 1.40548 661.99 1.08136C662.332 0.748474 662.743 0.582031 663.225 0.582031C663.707 0.582031 664.119 0.748474 664.46 1.08136C664.802 1.40548 664.973 1.79969 664.973 2.26397C664.973 2.72826 664.802 3.12685 664.46 3.45973C664.119 3.78385 663.707 3.94591 663.225 3.94591Z" fill="white"/>
<path d="M671.426 14.9837V27.5982H669.087V7.41492H671.36V10.5817H671.571C672.044 9.54801 672.779 8.72018 673.778 8.09821C674.786 7.46748 676.029 7.15212 677.51 7.15212C678.868 7.15212 680.059 7.43682 681.084 8.00623C682.118 8.56687 682.919 9.3947 683.489 10.4897C684.067 11.5847 684.356 12.9294 684.356 14.5237V27.5982H682.017V14.6683C682.017 13.0126 681.553 11.703 680.624 10.7394C679.704 9.77577 678.469 9.29396 676.919 9.29396C675.859 9.29396 674.917 9.52173 674.094 9.97725C673.27 10.4328 672.617 11.0898 672.136 11.9483C671.663 12.798 671.426 13.8098 671.426 14.9837Z" fill="white"/>
<path d="M696.735 35.5874C695.36 35.5874 694.156 35.4079 693.122 35.0487C692.088 34.6983 691.217 34.2165 690.507 33.6033C689.797 32.9901 689.246 32.3024 688.851 31.5403L690.77 30.2788C691.059 30.7869 691.444 31.2862 691.926 31.7768C692.417 32.2674 693.052 32.6747 693.831 32.9988C694.62 33.3229 695.588 33.485 696.735 33.485C698.523 33.485 699.964 33.0382 701.059 32.1447C702.162 31.2512 702.714 29.8627 702.714 27.9793V23.4328H702.504C702.232 24.046 701.843 24.6592 701.335 25.2724C700.826 25.8769 700.161 26.3806 699.337 26.7835C698.523 27.1865 697.511 27.388 696.302 27.388C694.69 27.388 693.258 26.9894 692.005 26.1922C690.761 25.395 689.78 24.2562 689.062 22.7758C688.352 21.2866 687.997 19.5126 687.997 17.454C687.997 15.4129 688.343 13.6171 689.035 12.0665C689.736 10.516 690.713 9.3071 691.966 8.43985C693.218 7.5726 694.677 7.13898 696.341 7.13898C697.576 7.13898 698.601 7.35798 699.416 7.79598C700.231 8.22523 700.883 8.7596 701.374 9.39908C701.873 10.0386 702.263 10.6605 702.543 11.265H702.78V7.41492H705.066V28.1238C705.066 29.832 704.703 31.238 703.976 32.3418C703.249 33.4456 702.259 34.2603 701.006 34.7859C699.753 35.3203 698.33 35.5874 696.735 35.5874ZM696.578 25.2461C697.874 25.2461 698.982 24.9351 699.902 24.3132C700.822 23.6824 701.527 22.7802 702.018 21.6063C702.508 20.4324 702.754 19.0352 702.754 17.4146C702.754 15.8378 702.513 14.4405 702.031 13.2229C701.549 11.9965 700.848 11.0328 699.929 10.332C699.017 9.62247 697.901 9.26768 696.578 9.26768C695.229 9.26768 694.09 9.63123 693.161 10.3583C692.233 11.0854 691.532 12.0665 691.059 13.3017C690.586 14.5281 690.349 15.8991 690.349 17.4146C690.349 18.9564 690.59 20.3186 691.072 21.5012C691.554 22.675 692.259 23.5948 693.188 24.2606C694.116 24.9176 695.246 25.2461 696.578 25.2461Z" fill="white"/>
<path d="M471.713 65.5555V39.6016H486.73V41.7306H474.083V51.5014H485.552V53.6304H474.083V65.5555H471.713Z" fill="white"/>
<path d="M496.864 65.9611C495.182 65.9611 493.695 65.5344 492.403 64.6811C491.119 63.8278 490.113 62.6492 489.387 61.1454C488.66 59.6331 488.297 57.8885 488.297 55.9115C488.297 53.9176 488.66 52.1646 489.387 50.6523C490.113 49.1315 491.119 47.9487 492.403 47.1039C493.695 46.2506 495.182 45.8239 496.864 45.8239C498.545 45.8239 500.028 46.2506 501.312 47.1039C502.596 47.9572 503.601 49.14 504.328 50.6523C505.063 52.1646 505.43 53.9176 505.43 55.9115C505.43 57.8885 505.067 59.6331 504.341 61.1454C503.614 62.6492 502.604 63.8278 501.312 64.6811C500.028 65.5344 498.545 65.9611 496.864 65.9611ZM496.864 63.8954C498.215 63.8954 499.36 63.5321 500.298 62.8055C501.236 62.0789 501.945 61.1116 502.427 59.9034C502.917 58.6953 503.162 57.3647 503.162 55.9115C503.162 54.4584 502.917 53.1235 502.427 51.9069C501.945 50.6903 501.236 49.7145 500.298 48.9795C499.36 48.2444 498.215 47.8769 496.864 47.8769C495.52 47.8769 494.375 48.2444 493.429 48.9795C492.491 49.7145 491.778 50.6903 491.287 51.9069C490.806 53.1235 490.565 54.4584 490.565 55.9115C490.565 57.3647 490.806 58.6953 491.287 59.9034C491.778 61.1116 492.491 62.0789 493.429 62.8055C494.367 63.5321 495.512 63.8954 496.864 63.8954Z" fill="white"/>
<path d="M508.955 65.5555V46.0901H511.147V49.0808H511.312C511.701 48.1008 512.376 47.3109 513.34 46.711C514.311 46.1027 515.41 45.7986 516.635 45.7986C516.82 45.7986 517.027 45.8028 517.256 45.8113C517.484 45.8197 517.674 45.8281 517.826 45.8366V48.1304C517.724 48.1135 517.547 48.0881 517.294 48.0543C517.04 48.0205 516.766 48.0037 516.47 48.0037C515.456 48.0037 514.552 48.2191 513.758 48.65C512.972 49.0724 512.351 49.6596 511.895 50.4115C511.439 51.1634 511.211 52.0209 511.211 52.9841V65.5555H508.955Z" fill="white"/>
<path d="M524.883 65.5555L519.003 46.0901H521.385L525.998 62.1465H526.163L530.763 46.0901H533.158L537.72 62.1085H537.898L542.511 46.0901H544.893L539.013 65.5555H536.681L532.068 49.6004H531.828L527.215 65.5555H524.883Z" fill="white"/>
<path d="M553.287 65.9991C552.113 65.9991 551.04 65.771 550.068 65.3147C549.097 64.8501 548.324 64.1826 547.749 63.3124C547.175 62.4338 546.887 61.3693 546.887 60.1189C546.887 59.1557 547.069 58.3447 547.432 57.6857C547.796 57.0267 548.311 56.486 548.978 56.0636C549.646 55.6411 550.436 55.3074 551.348 55.0624C552.261 54.8174 553.266 54.6273 554.364 54.4921C555.454 54.357 556.375 54.2387 557.127 54.1373C557.887 54.0359 558.466 53.8754 558.863 53.6557C559.26 53.4361 559.459 53.0812 559.459 52.5912V52.135C559.459 50.8086 559.062 49.7652 558.268 49.0048C557.482 48.236 556.35 47.8516 554.871 47.8516C553.469 47.8516 552.324 48.16 551.437 48.7767C550.558 49.3934 549.942 50.12 549.587 50.9564L547.445 50.1834C547.884 49.1189 548.493 48.2698 549.27 47.6361C550.047 46.9941 550.917 46.5336 551.881 46.2548C552.844 45.9676 553.819 45.8239 554.808 45.8239C555.551 45.8239 556.324 45.9211 557.127 46.1154C557.938 46.3097 558.69 46.6477 559.383 47.1292C560.076 47.6023 560.637 48.2656 561.068 49.1189C561.499 49.9637 561.715 51.0367 561.715 52.3378V65.5555H559.459V62.476H559.319C559.049 63.0505 558.648 63.6081 558.116 64.1488C557.583 64.6896 556.916 65.1331 556.113 65.4795C555.311 65.8259 554.369 65.9991 553.287 65.9991ZM553.591 63.9334C554.791 63.9334 555.83 63.6673 556.709 63.135C557.588 62.6028 558.263 61.8973 558.737 61.0187C559.218 60.1316 559.459 59.1557 559.459 58.0912V55.2779C559.29 55.4384 559.007 55.582 558.61 55.7087C558.221 55.8355 557.769 55.9495 557.254 56.0509C556.747 56.1438 556.24 56.2241 555.733 56.2917C555.226 56.3593 554.77 56.4184 554.364 56.4691C553.266 56.6043 552.328 56.8155 551.551 57.1027C550.774 57.39 550.178 57.7871 549.764 58.294C549.35 58.7925 549.143 59.4346 549.143 60.2203C549.143 61.4031 549.566 62.3197 550.41 62.9703C551.255 63.6124 552.316 63.9334 553.591 63.9334Z" fill="white"/>
<path d="M566.288 65.5555V46.0901H568.48V49.0808H568.645C569.034 48.1008 569.709 47.3109 570.673 46.711C571.644 46.1027 572.742 45.7986 573.968 45.7986C574.153 45.7986 574.36 45.8028 574.588 45.8113C574.817 45.8197 575.007 45.8281 575.159 45.8366V48.1304C575.057 48.1135 574.88 48.0881 574.626 48.0543C574.373 48.0205 574.098 48.0037 573.803 48.0037C572.789 48.0037 571.885 48.2191 571.091 48.65C570.305 49.0724 569.684 49.6596 569.228 50.4115C568.772 51.1634 568.544 52.0209 568.544 52.9841V65.5555H566.288Z" fill="white"/>
<path d="M583.996 65.9611C582.4 65.9611 581.001 65.5386 579.802 64.6938C578.602 63.8489 577.664 62.6703 576.988 61.1581C576.321 59.6458 575.987 57.8842 575.987 55.8735C575.987 53.8712 576.321 52.1181 576.988 50.6143C577.664 49.102 578.606 47.9276 579.814 47.0912C581.022 46.2464 582.429 45.8239 584.034 45.8239C585.217 45.8239 586.201 46.0351 586.987 46.4576C587.773 46.8715 588.402 47.3869 588.875 48.0037C589.348 48.6204 589.716 49.2202 589.978 49.8032H590.181V39.6016H592.449V65.5555H590.244V61.9438H589.978C589.716 62.5352 589.344 63.1435 588.863 63.7687C588.381 64.3854 587.743 64.905 586.949 65.3274C586.163 65.7498 585.179 65.9611 583.996 65.9611ZM584.262 63.8954C585.521 63.8954 586.594 63.5532 587.481 62.8689C588.368 62.1761 589.044 61.2256 589.509 60.0175C589.982 58.8009 590.219 57.4069 590.219 55.8355C590.219 54.2809 589.986 52.908 589.522 51.7168C589.057 50.5171 588.381 49.5793 587.494 48.9034C586.607 48.2191 585.53 47.8769 584.262 47.8769C582.961 47.8769 581.863 48.2318 580.967 48.9414C580.08 49.6427 579.404 50.5931 578.94 51.7928C578.484 52.9925 578.255 54.3401 578.255 55.8355C578.255 57.3478 578.488 58.7122 578.952 59.9288C579.417 61.1454 580.093 62.1127 580.98 62.8309C581.876 63.5405 582.97 63.8954 584.262 63.8954Z" fill="white"/>
<line x1="452.953" y1="3.27835e-08" x2="452.953" y2="65.993" stroke="white" stroke-width="1.5"/>
</svg>
