<svg width="200" height="200" viewBox="0 0 200 200" fill="none" xmlns="http://www.w3.org/2000/svg">
<rect width="200" height="200" fill="white"/>
<g clip-path="url(#clip0_621_48)">
<path d="M57.3418 111.057L93.0828 75.4894C97.7178 70.9794 100.602 64.6244 100.602 57.6544C100.602 50.7869 97.8208 44.4319 93.2888 39.9219L57.5478 75.4894C52.9128 79.9994 50.0288 86.3544 50.0288 93.3244C50.0288 100.294 52.8098 106.547 57.3418 111.057ZM143.862 90.2494L108.121 125.817C103.486 130.327 100.602 136.682 100.602 143.652C100.602 150.519 103.383 156.874 107.915 161.384L143.656 125.817C148.291 121.307 151.175 114.952 151.175 107.982C151.175 101.012 148.394 94.7594 143.862 90.2494ZM143.656 75.5919C148.291 71.0819 151.175 64.7269 151.175 57.7569C151.175 50.8894 148.394 44.5344 143.862 40.0244L57.4448 125.919C52.8098 130.532 49.9258 136.784 49.9258 143.857C49.9258 150.724 52.7068 157.079 57.2388 161.589L143.656 75.5919Z" fill="#0A69E1"/>
</g>
<defs>
<clipPath id="clip0_621_48">
<rect width="103" height="123" fill="white" transform="translate(49 39)"/>
</clipPath>
</defs>
</svg>
