<svg width="260" height="25" viewBox="0 0 260 25" fill="none" xmlns="http://www.w3.org/2000/svg">
<path d="M0.806799 23.791C0.268933 23.791 0 23.4952 0 22.9036V1.53953C0 0.947874 0.268933 0.652048 0.806799 0.652048H2.8722C3.62522 0.652048 4.16308 0.920981 4.4858 1.45885L14.5869 18.3855H14.6515C14.63 17.9552 14.6192 17.5249 14.6192 17.0946V1.53953C14.6192 0.947874 14.8881 0.652048 15.426 0.652048H16.9105C17.4484 0.652048 17.7173 0.947874 17.7173 1.53953V22.9036C17.7173 23.4952 17.4484 23.791 16.9105 23.791H15.4905C14.7375 23.791 14.1997 23.5221 13.8769 22.9842L3.13038 5.0249H3.06584C3.08735 5.45519 3.09811 5.88548 3.09811 6.31578V22.9036C3.09811 23.4952 2.82917 23.791 2.29131 23.791H0.806799Z" fill="#0A69E1"/>
<path d="M21.9449 12.2215C21.9449 8.45648 22.8701 5.50898 24.7203 3.37903C26.5813 1.23832 29.2599 0.167969 32.756 0.167969C36.2522 0.167969 38.9254 1.23832 40.7756 3.37903C42.6366 5.50898 43.5671 8.45648 43.5671 12.2215C43.5671 15.9866 42.6366 18.9395 40.7756 21.0802C38.9254 23.2101 36.2522 24.2751 32.756 24.2751C29.2599 24.2751 26.5813 23.2101 24.7203 21.0802C22.8701 18.9395 21.9449 15.9866 21.9449 12.2215ZM25.2528 12.2215C25.2528 15.2336 25.8713 17.5787 27.1084 19.2568C28.3455 20.9242 30.2281 21.7579 32.756 21.7579C35.284 21.7579 37.1665 20.9242 38.4036 19.2568C39.6407 17.5787 40.2593 15.2336 40.2593 12.2215C40.2593 9.2095 39.6407 6.86978 38.4036 5.20239C37.1665 3.52425 35.284 2.68518 32.756 2.68518C30.2281 2.68518 28.3455 3.52425 27.1084 5.20239C25.8713 6.86978 25.2528 9.2095 25.2528 12.2215Z" fill="#0A69E1"/>
<path d="M46.1973 1.71702C45.9284 1.00704 46.0736 0.652048 46.633 0.652048H48.2788C48.8597 0.652048 49.247 0.915602 49.4406 1.44271L54.6848 15.8844C54.9107 16.5191 55.1904 17.3743 55.5239 18.45C55.8681 19.515 56.0994 20.3648 56.2177 20.9995H56.2823C56.4006 20.3648 56.6265 19.515 56.96 18.45C57.3042 17.3743 57.5893 16.5191 57.8152 15.8844L63.0594 1.44271C63.253 0.915602 63.6403 0.652048 64.2212 0.652048H65.8671C66.4264 0.652048 66.5717 1.00704 66.3027 1.71702L58.4445 22.8067C58.1971 23.4629 57.8421 23.791 57.3795 23.791H55.1205C54.6579 23.791 54.3029 23.4629 54.0555 22.8067L46.1973 1.71702Z" fill="#0A69E1"/>
<path d="M64.8666 23.791C64.3073 23.791 64.162 23.4361 64.431 22.7261L72.4667 1.63634C72.7141 0.980146 73.0691 0.652048 73.5316 0.652048H75.7907C76.2533 0.652048 76.6082 0.980146 76.8557 1.63634L84.8914 22.7261C85.1603 23.4361 85.0151 23.791 84.4557 23.791H82.8098C82.2397 23.791 81.8524 23.5275 81.648 23.0004L79.6311 17.6594L78.6145 15.0131H75.8249L74.6612 17.6594H69.6913L67.6743 23.0004C67.4699 23.5275 67.0826 23.791 66.5125 23.791H64.8666ZM70.7079 15.0131H78.6145L76.1457 8.55868C75.9198 7.95627 75.6939 7.28931 75.468 6.55782C75.2528 5.82632 74.9946 4.78824 74.6934 3.44357H74.6289C74.3277 4.78824 74.0641 5.82632 73.8382 6.55782C73.6231 7.28931 73.4026 7.95627 73.1767 8.55868L70.7079 15.0131Z" fill="#0A69E1"/>
<path d="M88.7801 23.791C88.2423 23.791 87.9734 23.4952 87.9734 22.9036V1.53953C87.9734 0.947874 88.2423 0.652048 88.7801 0.652048H90.2647C90.8025 0.652048 91.0715 0.947874 91.0715 1.53953V21.1447H101.77C102.361 21.1447 102.657 21.3868 102.657 21.8709V23.0649C102.657 23.549 102.361 23.791 101.77 23.791H88.7801Z" fill="#0A69E1"/>
<path d="M107.111 23.791C106.573 23.791 106.304 23.4952 106.304 22.9036V1.53953C106.304 0.947874 106.573 0.652048 107.111 0.652048H108.595C109.133 0.652048 109.402 0.947874 109.402 1.53953V22.9036C109.402 23.4952 109.133 23.791 108.595 23.791H107.111Z" fill="#0A69E1"/>
<path d="M115.695 23.791C115.157 23.791 114.888 23.4952 114.888 22.9036V1.53953C114.888 0.947874 115.157 0.652048 115.695 0.652048H117.76C118.513 0.652048 119.051 0.920981 119.374 1.45885L129.475 18.3855H129.54C129.518 17.9552 129.507 17.5249 129.507 17.0946V1.53953C129.507 0.947874 129.776 0.652048 130.314 0.652048H131.799C132.337 0.652048 132.605 0.947874 132.605 1.53953V22.9036C132.605 23.4952 132.337 23.791 131.799 23.791H130.379C129.626 23.791 129.088 23.5221 128.765 22.9842L118.019 5.0249H117.954C117.976 5.45519 117.986 5.88548 117.986 6.31578V22.9036C117.986 23.4952 117.717 23.791 117.179 23.791H115.695Z" fill="#0A69E1"/>
<path d="M138.898 23.791C138.361 23.791 138.092 23.4952 138.092 22.9036V1.53953C138.092 0.947874 138.361 0.652048 138.898 0.652048H140.383C140.921 0.652048 141.19 0.947874 141.19 1.53953V11.0275C141.19 11.4578 141.179 11.8881 141.158 12.3184H141.222L152.001 1.28135C152.41 0.861816 152.786 0.652048 153.13 0.652048H155.083C155.976 0.652048 156.073 1.00704 155.373 1.71702L147.176 10.0755L155.809 22.7261C156.282 23.4361 156.186 23.791 155.519 23.791H153.55C153.077 23.791 152.7 23.5813 152.42 23.1617L145.046 12.27L141.19 16.191V22.9036C141.19 23.4952 140.921 23.791 140.383 23.791H138.898Z" fill="#0A69E1"/>
<path d="M175.895 10.5417V0.932069H178.996C179.678 0.932069 180.247 1.05563 180.704 1.30275C181.164 1.54675 181.51 1.88615 181.741 2.32096C181.976 2.75264 182.093 3.24845 182.093 3.80838C182.093 4.36832 181.976 4.86256 181.741 5.29112C181.51 5.71967 181.165 6.05438 180.709 6.29524C180.252 6.53611 179.686 6.65654 179.01 6.65654H176.368V5.85418H178.987C179.487 5.85418 179.903 5.77128 180.235 5.60549C180.57 5.4397 180.818 5.20353 180.981 4.89697C181.147 4.59042 181.23 4.22755 181.23 3.80838C181.23 3.38921 181.147 3.02322 180.981 2.71041C180.815 2.39447 180.565 2.15048 180.23 1.97843C179.899 1.80638 179.479 1.72036 178.973 1.72036H176.772V10.5417H175.895ZM180.132 6.20609L182.496 10.5417H181.483L179.142 6.20609H180.132Z" fill="#0A69E1"/>
<path d="M186.365 10.6918C185.692 10.6918 185.11 10.5354 184.619 10.2226C184.128 9.90667 183.748 9.47029 183.479 8.91349C183.213 8.35355 183.08 7.70916 183.08 6.9803C183.08 6.25458 183.213 5.61018 183.479 5.04712C183.748 4.48093 184.119 4.0383 184.591 3.71923C185.066 3.39703 185.615 3.23594 186.238 3.23594C186.629 3.23594 187.006 3.30788 187.369 3.45178C187.731 3.59254 188.057 3.80995 188.345 4.10399C188.636 4.39491 188.865 4.76246 189.034 5.20666C189.203 5.64772 189.288 6.17012 189.288 6.77385V7.18676H183.657V6.45009H188.434C188.434 5.98712 188.34 5.57108 188.152 5.20196C187.968 4.82972 187.71 4.53567 187.378 4.31983C187.05 4.10399 186.669 3.99607 186.238 3.99607C185.781 3.99607 185.379 4.11807 185.032 4.36206C184.685 4.60606 184.413 4.92825 184.215 5.32865C184.022 5.72905 183.923 6.16699 183.92 6.64247V7.08353C183.92 7.65598 184.018 8.15648 184.215 8.58503C184.416 9.01046 184.699 9.34048 185.065 9.57509C185.431 9.8097 185.864 9.927 186.365 9.927C186.705 9.927 187.004 9.87382 187.261 9.76747C187.52 9.66111 187.738 9.51878 187.913 9.34048C188.091 9.15905 188.226 8.96041 188.316 8.74457L189.109 9.00264C189 9.30607 188.82 9.58604 188.57 9.84254C188.323 10.099 188.013 10.3055 187.641 10.4619C187.272 10.6152 186.846 10.6918 186.365 10.6918Z" fill="#0A69E1"/>
<path d="M195.959 3.33447L193.327 10.5417H192.436L189.803 3.33447H190.709L192.848 9.43901H192.914L195.054 3.33447H195.959Z" fill="#0A69E1"/>
<path d="M199.608 10.6918C198.986 10.6918 198.435 10.5339 197.956 10.2179C197.481 9.90198 197.109 9.4656 196.84 8.9088C196.571 8.34886 196.436 7.7029 196.436 6.97092C196.436 6.23268 196.571 5.5836 196.84 5.02366C197.109 4.4606 197.481 4.02266 197.956 3.70985C198.435 3.39391 198.986 3.23594 199.608 3.23594C200.231 3.23594 200.78 3.39391 201.255 3.70985C201.731 4.02579 202.103 4.46373 202.372 5.02366C202.644 5.5836 202.78 6.23268 202.78 6.97092C202.78 7.7029 202.645 8.34886 202.376 8.9088C202.107 9.4656 201.734 9.90198 201.255 10.2179C200.78 10.5339 200.231 10.6918 199.608 10.6918ZM199.608 9.927C200.109 9.927 200.532 9.79249 200.88 9.52347C201.227 9.25445 201.49 8.89628 201.668 8.44896C201.849 8.00164 201.94 7.50896 201.94 6.97092C201.94 6.43288 201.849 5.93864 201.668 5.48819C201.49 5.03774 201.227 4.67644 200.88 4.40429C200.532 4.13214 200.109 3.99607 199.608 3.99607C199.111 3.99607 198.687 4.13214 198.336 4.40429C197.989 4.67644 197.725 5.03774 197.544 5.48819C197.365 5.93864 197.276 6.43288 197.276 6.97092C197.276 7.50896 197.365 8.00164 197.544 8.44896C197.725 8.89628 197.989 9.25445 198.336 9.52347C198.684 9.79249 199.108 9.927 199.608 9.927Z" fill="#0A69E1"/>
<path d="M204.92 0.932069V10.5417H204.085V0.932069H204.92Z" fill="#0A69E1"/>
<path d="M211.181 7.78736V3.33447H212.016V10.5417H211.181V9.34517H211.116C210.947 9.71429 210.679 10.0224 210.313 10.2695C209.947 10.5135 209.5 10.6355 208.971 10.6355C208.511 10.6355 208.103 10.5354 207.747 10.3352C207.39 10.1319 207.11 9.83472 206.907 9.44371C206.703 9.05269 206.602 8.57252 206.602 8.0032V3.33447H207.437V7.95159C207.437 8.51465 207.603 8.96823 207.934 9.31232C208.266 9.65329 208.691 9.82377 209.21 9.82377C209.536 9.82377 209.849 9.74557 210.149 9.58916C210.449 9.43276 210.696 9.2044 210.89 8.9041C211.084 8.60068 211.181 8.22843 211.181 7.78736Z" fill="#0A69E1"/>
<path d="M216.538 3.33447V4.06176H213.098V3.33447H216.538ZM214.173 1.60774H215.013V8.66011C215.013 8.96041 215.065 9.19658 215.168 9.36863C215.271 9.53755 215.405 9.65798 215.571 9.72993C215.737 9.79875 215.914 9.83316 216.102 9.83316C216.211 9.83316 216.305 9.8269 216.383 9.81439C216.461 9.79875 216.53 9.78311 216.589 9.76747L216.768 10.5229C216.686 10.5542 216.586 10.5823 216.467 10.6074C216.349 10.6355 216.202 10.6496 216.026 10.6496C215.72 10.6496 215.424 10.5823 215.14 10.4478C214.858 10.3133 214.627 10.1131 214.445 9.84723C214.264 9.58134 214.173 9.25133 214.173 8.85718V1.60774Z" fill="#0A69E1"/>
<path d="M217.916 10.5417V3.33447H218.755V10.5417H217.916ZM218.343 2.09573C218.17 2.09573 218.023 2.03786 217.901 1.92212C217.779 1.80325 217.718 1.66092 217.718 1.49513C217.718 1.32934 217.779 1.18858 217.901 1.07284C218.023 0.953966 218.17 0.894531 218.343 0.894531C218.515 0.894531 218.662 0.953966 218.784 1.07284C218.906 1.18858 218.967 1.32934 218.967 1.49513C218.967 1.66092 218.906 1.80325 218.784 1.92212C218.662 2.03786 218.515 2.09573 218.343 2.09573Z" fill="#0A69E1"/>
<path d="M223.237 10.6918C222.615 10.6918 222.064 10.5339 221.585 10.2179C221.11 9.90198 220.738 9.4656 220.469 8.9088C220.2 8.34886 220.065 7.7029 220.065 6.97092C220.065 6.23268 220.2 5.5836 220.469 5.02366C220.738 4.4606 221.11 4.02266 221.585 3.70985C222.064 3.39391 222.615 3.23594 223.237 3.23594C223.86 3.23594 224.408 3.39391 224.884 3.70985C225.359 4.02579 225.732 4.46373 226.001 5.02366C226.273 5.5836 226.409 6.23268 226.409 6.97092C226.409 7.7029 226.274 8.34886 226.005 8.9088C225.736 9.4656 225.363 9.90198 224.884 10.2179C224.408 10.5339 223.86 10.6918 223.237 10.6918ZM223.237 9.927C223.738 9.927 224.161 9.79249 224.509 9.52347C224.856 9.25445 225.119 8.89628 225.297 8.44896C225.478 8.00164 225.569 7.50896 225.569 6.97092C225.569 6.43288 225.478 5.93864 225.297 5.48819C225.119 5.03774 224.856 4.67644 224.509 4.40429C224.161 4.13214 223.738 3.99607 223.237 3.99607C222.74 3.99607 222.316 4.13214 221.965 4.40429C221.618 4.67644 221.354 5.03774 221.172 5.48819C220.994 5.93864 220.905 6.43288 220.905 6.97092C220.905 7.50896 220.994 8.00164 221.172 8.44896C221.354 8.89628 221.618 9.25445 221.965 9.52347C222.313 9.79249 222.737 9.927 223.237 9.927Z" fill="#0A69E1"/>
<path d="M228.549 6.03717V10.5417H227.714V3.33447H228.526V4.46529H228.601C228.77 4.09617 229.032 3.80056 229.389 3.57847C229.749 3.35324 230.193 3.24063 230.722 3.24063C231.206 3.24063 231.632 3.34229 231.998 3.54562C232.367 3.74582 232.653 4.04143 232.857 4.43244C233.063 4.82346 233.166 5.30363 233.166 5.87295V10.5417H232.331V5.92456C232.331 5.33334 232.165 4.86569 231.834 4.5216C231.505 4.1775 231.064 4.00546 230.51 4.00546C230.132 4.00546 229.796 4.08679 229.502 4.24945C229.208 4.41211 228.975 4.64672 228.802 4.95328C228.634 5.25671 228.549 5.618 228.549 6.03717Z" fill="#0A69E1"/>
<path d="M234.847 10.5417V3.33447H235.686V10.5417H234.847ZM235.274 2.09573C235.101 2.09573 234.954 2.03786 234.832 1.92212C234.71 1.80325 234.649 1.66092 234.649 1.49513C234.649 1.32934 234.71 1.18858 234.832 1.07284C234.954 0.953966 235.101 0.894531 235.274 0.894531C235.446 0.894531 235.593 0.953966 235.715 1.07284C235.837 1.18858 235.898 1.32934 235.898 1.49513C235.898 1.66092 235.837 1.80325 235.715 1.92212C235.593 2.03786 235.446 2.09573 235.274 2.09573Z" fill="#0A69E1"/>
<path d="M237.142 10.5417V9.88008L241.308 4.18376V4.12276H237.32V3.33447H242.383V4.02422L238.291 9.69239V9.75339H242.533V10.5417H237.142Z" fill="#0A69E1"/>
<path d="M243.854 10.5417V3.33447H244.694V10.5417H243.854ZM244.281 2.09573C244.109 2.09573 243.962 2.03786 243.84 1.92212C243.718 1.80325 243.657 1.66092 243.657 1.49513C243.657 1.32934 243.718 1.18858 243.84 1.07284C243.962 0.953966 244.109 0.894531 244.281 0.894531C244.453 0.894531 244.6 0.953966 244.722 1.07284C244.844 1.18858 244.905 1.32934 244.905 1.49513C244.905 1.66092 244.844 1.80325 244.722 1.92212C244.6 2.03786 244.453 2.09573 244.281 2.09573Z" fill="#0A69E1"/>
<path d="M247.21 6.03717V10.5417H246.374V3.33447H247.186V4.46529H247.261C247.43 4.09617 247.693 3.80056 248.05 3.57847C248.409 3.35324 248.853 3.24063 249.382 3.24063C249.867 3.24063 250.292 3.34229 250.658 3.54562C251.028 3.74582 251.314 4.04143 251.517 4.43244C251.724 4.82346 251.827 5.30363 251.827 5.87295V10.5417H250.992V5.92456C250.992 5.33334 250.826 4.86569 250.494 4.5216C250.166 4.1775 249.725 4.00546 249.171 4.00546C248.792 4.00546 248.456 4.08679 248.162 4.24945C247.868 4.41211 247.635 4.64672 247.463 4.95328C247.294 5.25671 247.21 5.618 247.21 6.03717Z" fill="#0A69E1"/>
<path d="M256.247 13.3945C255.756 13.3945 255.326 13.3304 254.957 13.2022C254.588 13.077 254.277 12.905 254.023 12.686C253.77 12.467 253.573 12.2215 253.432 11.9493L254.117 11.4989C254.22 11.6803 254.358 11.8586 254.53 12.0338C254.705 12.209 254.932 12.3544 255.21 12.4702C255.492 12.5859 255.838 12.6438 256.247 12.6438C256.885 12.6438 257.4 12.4842 257.791 12.1652C258.185 11.8461 258.382 11.3503 258.382 10.6778V9.05425H258.307C258.21 9.27322 258.071 9.49219 257.89 9.71116C257.708 9.927 257.47 10.1069 257.176 10.2508C256.885 10.3947 256.524 10.4666 256.092 10.4666C255.517 10.4666 255.005 10.3243 254.558 10.0396C254.114 9.75495 253.764 9.3483 253.507 8.81964C253.254 8.28786 253.127 7.65442 253.127 6.91931C253.127 6.19045 253.251 5.54919 253.498 4.99551C253.748 4.44183 254.097 4.01015 254.544 3.70046C254.991 3.39078 255.512 3.23594 256.107 3.23594C256.548 3.23594 256.914 3.31414 257.205 3.47055C257.495 3.62382 257.728 3.81464 257.904 4.04299C258.082 4.27135 258.221 4.49344 258.321 4.70928H258.406V3.33447H259.222V10.7294C259.222 11.3394 259.092 11.8414 258.833 12.2356C258.573 12.6297 258.22 12.9206 257.772 13.1083C257.325 13.2991 256.817 13.3945 256.247 13.3945ZM256.191 9.70178C256.654 9.70178 257.05 9.59073 257.378 9.36863C257.707 9.14341 257.958 8.82121 258.134 8.40204C258.309 7.98287 258.396 7.48393 258.396 6.90523C258.396 6.34217 258.31 5.84323 258.138 5.40842C257.966 4.97048 257.716 4.62639 257.388 4.37614C257.062 4.12276 256.663 3.99607 256.191 3.99607C255.709 3.99607 255.303 4.12589 254.971 4.38552C254.639 4.64516 254.389 4.99551 254.22 5.43657C254.051 5.87451 253.967 6.36406 253.967 6.90523C253.967 7.45578 254.053 7.9422 254.225 8.3645C254.397 8.78367 254.649 9.11212 254.98 9.34986C255.312 9.58447 255.716 9.70178 256.191 9.70178Z" fill="#0A69E1"/>
<path d="M175.895 23.9416V14.2852H181.482V15.0773H176.776V18.7126H181.043V19.5047H176.776V23.9416H175.895Z" fill="#0A69E1"/>
<path d="M185.252 24.0924C184.627 24.0924 184.073 23.9337 183.592 23.6162C183.115 23.2987 182.741 22.8602 182.47 22.3007C182.2 21.7381 182.065 21.089 182.065 20.3534C182.065 19.6116 182.2 18.9593 182.47 18.3967C182.741 17.8309 183.115 17.3908 183.592 17.0765C184.073 16.759 184.627 16.6002 185.252 16.6002C185.878 16.6002 186.429 16.759 186.907 17.0765C187.385 17.3939 187.759 17.834 188.029 18.3967C188.303 18.9593 188.439 19.6116 188.439 20.3534C188.439 21.089 188.304 21.7381 188.034 22.3007C187.764 22.8602 187.388 23.2987 186.907 23.6162C186.429 23.9337 185.878 24.0924 185.252 24.0924ZM185.252 23.3239C185.755 23.3239 186.181 23.1887 186.53 22.9184C186.879 22.6481 187.143 22.2881 187.322 21.8386C187.504 21.3891 187.595 20.8941 187.595 20.3534C187.595 19.8128 187.504 19.3161 187.322 18.8635C187.143 18.4108 186.879 18.0478 186.53 17.7743C186.181 17.5008 185.755 17.3641 185.252 17.3641C184.752 17.3641 184.326 17.5008 183.974 17.7743C183.625 18.0478 183.36 18.4108 183.177 18.8635C182.998 19.3161 182.909 19.8128 182.909 20.3534C182.909 20.8941 182.998 21.3891 183.177 21.8386C183.36 22.2881 183.625 22.6481 183.974 22.9184C184.323 23.1887 184.749 23.3239 185.252 23.3239Z" fill="#0A69E1"/>
<path d="M189.751 23.9416V16.6993H190.566V17.812H190.628C190.772 17.4474 191.024 17.1535 191.382 16.9303C191.744 16.704 192.152 16.5908 192.608 16.5908C192.677 16.5908 192.754 16.5924 192.839 16.5955C192.924 16.5987 192.995 16.6018 193.051 16.605V17.4584C193.014 17.4521 192.948 17.4427 192.853 17.4301C192.759 17.4175 192.657 17.4112 192.547 17.4112C192.17 17.4112 191.833 17.4914 191.538 17.6517C191.245 17.8089 191.014 18.0273 190.845 18.3071C190.675 18.5868 190.59 18.9059 190.59 19.2642V23.9416H189.751Z" fill="#0A69E1"/>
<path d="M195.677 23.9416L193.489 16.6993H194.376L196.092 22.6732H196.153L197.865 16.6993H198.756L200.453 22.6591H200.519L202.235 16.6993H203.122L200.934 23.9416H200.067L198.35 18.0053H198.261L196.544 23.9416H195.677Z" fill="#0A69E1"/>
<path d="M206.245 24.1066C205.808 24.1066 205.409 24.0217 205.047 23.852C204.686 23.6791 204.398 23.4308 204.185 23.107C203.971 22.7801 203.864 22.384 203.864 21.9188C203.864 21.5605 203.931 21.2587 204.067 21.0135C204.202 20.7683 204.394 20.5672 204.642 20.41C204.89 20.2528 205.184 20.1287 205.524 20.0375C205.863 19.9463 206.237 19.8756 206.646 19.8253C207.051 19.775 207.394 19.731 207.674 19.6933C207.957 19.6556 208.172 19.5959 208.32 19.5141C208.467 19.4324 208.541 19.3004 208.541 19.1181V18.9483C208.541 18.4548 208.393 18.0666 208.098 17.7837C207.806 17.4977 207.384 17.3546 206.834 17.3546C206.313 17.3546 205.887 17.4694 205.557 17.6988C205.23 17.9283 205 18.1986 204.868 18.5098L204.071 18.2222C204.235 17.8261 204.461 17.5102 204.75 17.2745C205.039 17.0356 205.363 16.8643 205.722 16.7606C206.08 16.6537 206.443 16.6002 206.811 16.6002C207.087 16.6002 207.375 16.6364 207.674 16.7087C207.975 16.781 208.255 16.9067 208.513 17.0859C208.771 17.2619 208.98 17.5087 209.14 17.8261C209.3 18.1405 209.38 18.5397 209.38 19.0238V23.9416H208.541V22.7958H208.489C208.389 23.0095 208.239 23.217 208.041 23.4182C207.843 23.6194 207.595 23.7844 207.296 23.9133C206.998 24.0421 206.647 24.1066 206.245 24.1066ZM206.358 23.338C206.804 23.338 207.191 23.239 207.518 23.041C207.845 22.843 208.096 22.5805 208.272 22.2536C208.452 21.9235 208.541 21.5605 208.541 21.1644V20.1177C208.478 20.1774 208.373 20.2308 208.225 20.278C208.081 20.3251 207.913 20.3676 207.721 20.4053C207.532 20.4399 207.344 20.4697 207.155 20.4949C206.966 20.52 206.797 20.542 206.646 20.5609C206.237 20.6112 205.888 20.6897 205.599 20.7966C205.31 20.9035 205.088 21.0512 204.934 21.2398C204.78 21.4253 204.703 21.6642 204.703 21.9565C204.703 22.3966 204.86 22.7376 205.175 22.9797C205.489 23.2186 205.883 23.338 206.358 23.338Z" fill="#0A69E1"/>
<path d="M211.082 23.9416V16.6993H211.898V17.812H211.959C212.104 17.4474 212.355 17.1535 212.713 16.9303C213.075 16.704 213.483 16.5908 213.939 16.5908C214.008 16.5908 214.085 16.5924 214.17 16.5955C214.255 16.5987 214.326 16.6018 214.382 16.605V17.4584C214.345 17.4521 214.279 17.4427 214.184 17.4301C214.09 17.4175 213.988 17.4112 213.878 17.4112C213.501 17.4112 213.164 17.4914 212.869 17.6517C212.577 17.8089 212.346 18.0273 212.176 18.3071C212.006 18.5868 211.921 18.9059 211.921 19.2642V23.9416H211.082Z" fill="#0A69E1"/>
<path d="M217.671 24.0924C217.076 24.0924 216.556 23.9353 216.11 23.6209C215.664 23.3066 215.315 22.8681 215.063 22.3054C214.815 21.7428 214.691 21.0874 214.691 20.3393C214.691 19.5943 214.815 18.942 215.063 18.3825C215.315 17.8199 215.665 17.3829 216.115 17.0717C216.564 16.7574 217.087 16.6002 217.685 16.6002C218.125 16.6002 218.491 16.6788 218.783 16.836C219.076 16.99 219.31 17.1818 219.486 17.4112C219.662 17.6407 219.799 17.8639 219.896 18.0808H219.972V14.2852H220.816V23.9416H219.995V22.5978H219.896C219.799 22.8178 219.66 23.0441 219.481 23.2767C219.302 23.5062 219.065 23.6995 218.769 23.8567C218.477 24.0139 218.111 24.0924 217.671 24.0924ZM217.77 23.3239C218.238 23.3239 218.637 23.1966 218.967 22.942C219.297 22.6842 219.549 22.3306 219.722 21.8811C219.898 21.4284 219.986 20.9098 219.986 20.3251C219.986 19.7467 219.899 19.2359 219.726 18.7927C219.553 18.3464 219.302 17.9975 218.972 17.746C218.642 17.4914 218.241 17.3641 217.77 17.3641C217.286 17.3641 216.877 17.4961 216.544 17.7601C216.214 18.021 215.962 18.3747 215.789 18.821C215.62 19.2674 215.535 19.7687 215.535 20.3251C215.535 20.8878 215.621 21.3954 215.794 21.8481C215.967 22.3007 216.218 22.6606 216.548 22.9278C216.882 23.1919 217.289 23.3239 217.77 23.3239Z" fill="#0A69E1"/>
<line x1="171.027" y1="0.894531" x2="164.777" y2="24.1088" stroke="#0A69E1"/>
</svg>
